<svg width="20" height="20" viewBox="0 0 20 20" fill="none" xmlns="http://www.w3.org/2000/svg">
<path d="M14.9999 7.99971C16.6566 7.99971 17.9997 6.65663 17.9997 4.99985C17.9997 3.34308 16.6566 2 14.9999 2C13.3431 2 12 3.34308 12 4.99985C12 6.65663 13.3431 7.99971 14.9999 7.99971Z" stroke="#5C5C5C" stroke-width="1.5" stroke-linecap="round" stroke-linejoin="round"/>
<path d="M4.99985 17.9991C6.65663 17.9991 7.99971 16.656 7.99971 14.9992C7.99971 13.3425 6.65663 11.9994 4.99985 11.9994C3.34308 11.9994 2 13.3425 2 14.9992C2 16.656 3.34308 17.9991 4.99985 17.9991Z" stroke="#5C5C5C" stroke-width="1.5" stroke-linecap="round" stroke-linejoin="round"/>
<path d="M11.9995 11.9995H17.9992V16.9993C17.9992 17.2645 17.8939 17.5188 17.7063 17.7063C17.5188 17.8939 17.2645 17.9992 16.9993 17.9992H12.9995C12.7343 17.9992 12.4799 17.8939 12.2924 17.7063C12.1049 17.5188 11.9995 17.2645 11.9995 16.9993V11.9995ZM2 2H7.99971V6.99976C7.99971 7.26496 7.89436 7.5193 7.70683 7.70683C7.5193 7.89436 7.26496 7.99971 6.99976 7.99971H2.99995C2.73475 7.99971 2.48041 7.89436 2.29288 7.70683C2.10535 7.5193 2 7.26496 2 6.99976V2Z" stroke="#5C5C5C" stroke-width="1.5" stroke-linecap="round" stroke-linejoin="round"/>
</svg>
