<svg width="20" height="20" viewBox="0 0 20 20" fill="none" xmlns="http://www.w3.org/2000/svg">
<path d="M5.41699 6.75829C4.67533 6.75829 4.07533 6.15829 4.07533 5.41663C4.07533 5.06079 4.21668 4.71954 4.46829 4.46792C4.7199 4.21631 5.06116 4.07496 5.41699 4.07496C6.15866 4.07496 6.75866 4.67496 6.75866 5.41663C6.75866 5.77246 6.61731 6.11372 6.36569 6.36533C6.11408 6.61694 5.77282 6.75829 5.41699 6.75829ZM5.41699 1.66663C3.33366 1.66663 1.66699 3.33329 1.66699 5.41663C1.66699 8.22496 5.41699 12.3833 5.41699 12.3833C5.41699 12.3833 9.16699 8.22496 9.16699 5.41663C9.16699 3.33329 7.50033 1.66663 5.41699 1.66663ZM14.5837 6.75829C14.2278 6.75829 13.8866 6.61694 13.635 6.36533C13.3833 6.11372 13.242 5.77246 13.242 5.41663C13.242 5.24044 13.2767 5.06597 13.3441 4.90319C13.4115 4.74041 13.5104 4.59251 13.635 4.46792C13.7595 4.34334 13.9074 4.24451 14.0702 4.17709C14.233 4.10966 14.4075 4.07496 14.5837 4.07496C14.7598 4.07496 14.9343 4.10966 15.0971 4.17709C15.2599 4.24451 15.4078 4.34334 15.5324 4.46792C15.6569 4.59251 15.7558 4.74041 15.8232 4.90319C15.8906 5.06597 15.9253 5.24044 15.9253 5.41663C15.9253 5.77246 15.784 6.11372 15.5324 6.36533C15.2807 6.61694 14.9395 6.75829 14.5837 6.75829ZM14.5837 1.66663C12.5003 1.66663 10.8337 3.33329 10.8337 5.41663C10.8337 8.22496 14.5837 12.3833 14.5837 12.3833C14.5837 12.3833 18.3337 8.22496 18.3337 5.41663C18.3337 3.33329 16.667 1.66663 14.5837 1.66663ZM14.5837 13.3333C13.5253 13.3333 12.5837 14 12.2337 15H7.76699C7.54618 14.3763 7.08713 13.8655 6.49044 13.5797C5.89374 13.2938 5.20807 13.2562 4.58366 13.475C4.27331 13.5837 3.98744 13.7526 3.74238 13.9718C3.49733 14.1911 3.2979 14.4566 3.1555 14.753C3.01309 15.0494 2.93051 15.371 2.91246 15.6993C2.89442 16.0277 2.94126 16.3564 3.05033 16.6666C3.27413 17.2919 3.73628 17.8033 4.33584 18.089C4.9354 18.3748 5.62366 18.4116 6.25033 18.1916C6.95866 17.9416 7.50033 17.375 7.76699 16.6666H12.242C12.7003 17.9666 14.1337 18.65 15.417 18.1916C15.7283 18.084 16.0152 17.9159 16.2614 17.697C16.5075 17.4782 16.708 17.2128 16.8512 16.9162C16.9945 16.6196 17.0777 16.2977 17.0962 15.9688C17.1146 15.64 17.0679 15.3107 16.9587 15C16.6003 14 15.6503 13.3333 14.5837 13.3333ZM14.5837 17.0833C14.2521 17.0833 13.9342 16.9516 13.6998 16.7172C13.4654 16.4828 13.3337 16.1648 13.3337 15.8333C13.3337 15.5018 13.4654 15.1838 13.6998 14.9494C13.9342 14.715 14.2521 14.5833 14.5837 14.5833C14.9152 14.5833 15.2331 14.715 15.4675 14.9494C15.702 15.1838 15.8337 15.5018 15.8337 15.8333C15.8337 16.1648 15.702 16.4828 15.4675 16.7172C15.2331 16.9516 14.9152 17.0833 14.5837 17.0833Z" fill="#5C5C5C"/>
</svg>
