<svg width="20" height="20" viewBox="0 0 20 20" fill="none" xmlns="http://www.w3.org/2000/svg">
<path d="M7.5 1.25C6.72418 1.24959 5.96734 1.48982 5.33377 1.93757C4.70021 2.38532 4.22111 3.01856 3.9625 3.75H0V6.25H3.9625C4.22075 6.98192 4.69967 7.61571 5.33325 8.06401C5.96683 8.51232 6.72386 8.75306 7.5 8.75306C8.27614 8.75306 9.03317 8.51232 9.66675 8.06401C10.3003 7.61571 10.7792 6.98192 11.0375 6.25H20V3.75H11.0375C10.7789 3.01856 10.2998 2.38532 9.66623 1.93757C9.03266 1.48982 8.27582 1.24959 7.5 1.25ZM6.25 5C6.25 4.66848 6.3817 4.35054 6.61612 4.11612C6.85054 3.8817 7.16848 3.75 7.5 3.75C7.83152 3.75 8.14946 3.8817 8.38388 4.11612C8.6183 4.35054 8.75 4.66848 8.75 5C8.75 5.33152 8.6183 5.64946 8.38388 5.88388C8.14946 6.1183 7.83152 6.25 7.5 6.25C7.16848 6.25 6.85054 6.1183 6.61612 5.88388C6.3817 5.64946 6.25 5.33152 6.25 5ZM12.5 11.25C11.7242 11.2496 10.9673 11.4898 10.3338 11.9376C9.7002 12.3853 9.2211 13.0186 8.9625 13.75H0V16.25H8.9625C9.22075 16.9819 9.69967 17.6157 10.3333 18.064C10.9668 18.5123 11.7239 18.7531 12.5 18.7531C13.2761 18.7531 14.0332 18.5123 14.6667 18.064C15.3003 17.6157 15.7792 16.9819 16.0375 16.25H20V13.75H16.0375C15.7789 13.0186 15.2998 12.3853 14.6662 11.9376C14.0327 11.4898 13.2758 11.2496 12.5 11.25ZM11.25 15C11.25 14.6685 11.3817 14.3505 11.6161 14.1161C11.8505 13.8817 12.1685 13.75 12.5 13.75C12.8315 13.75 13.1495 13.8817 13.3839 14.1161C13.6183 14.3505 13.75 14.6685 13.75 15C13.75 15.3315 13.6183 15.6495 13.3839 15.8839C13.1495 16.1183 12.8315 16.25 12.5 16.25C12.1685 16.25 11.8505 16.1183 11.6161 15.8839C11.3817 15.6495 11.25 15.3315 11.25 15Z" fill="#525252"/>
</svg>
